<?xml version="1.0" encoding="UTF-8" standalone="no"?>
<!-- Created with Inkscape (http://www.inkscape.org/) -->

<svg
   xmlns:dc="http://purl.org/dc/elements/1.1/"
   xmlns:cc="http://creativecommons.org/ns#"
   xmlns:rdf="http://www.w3.org/1999/02/22-rdf-syntax-ns#"
   xmlns:svg="http://www.w3.org/2000/svg"
   xmlns="http://www.w3.org/2000/svg"
   xmlns:xlink="http://www.w3.org/1999/xlink"
   xmlns:sodipodi="http://sodipodi.sourceforge.net/DTD/sodipodi-0.dtd"
   xmlns:inkscape="http://www.inkscape.org/namespaces/inkscape"
   width="32"
   height="32"
   id="svg2"
   version="1.1"
   inkscape:version="0.48.2 r9819"
   inkscape:export-filename="/home/paul/Desktop/fan.png"
   inkscape:export-xdpi="27.391304"
   inkscape:export-ydpi="27.391304"
   sodipodi:docname="New document 1">
  <defs
     id="defs4" />
  <sodipodi:namedview
     id="base"
     pagecolor="#ffffff"
     bordercolor="#666666"
     borderopacity="1.0"
     inkscape:pageopacity="0.0"
     inkscape:pageshadow="2"
     inkscape:zoom="8"
     inkscape:cx="0.53560959"
     inkscape:cy="13.172251"
     inkscape:document-units="px"
     inkscape:current-layer="layer1"
     showgrid="true"
     fit-margin-top="0.5"
     fit-margin-left="0.5"
     fit-margin-right="0.5"
     fit-margin-bottom="0.5"
     inkscape:window-width="1366"
     inkscape:window-height="712"
     inkscape:window-x="0"
     inkscape:window-y="30"
     inkscape:window-maximized="1">
    <inkscape:grid
       type="xygrid"
       id="grid2985"
       empspacing="5"
       visible="true"
       enabled="true"
       snapvisiblegridlinesonly="true"
       spacingx="32px"
       spacingy="32px" />
  </sodipodi:namedview>
  <metadata
     id="metadata7">
    <rdf:RDF>
      <cc:Work
         rdf:about="">
        <dc:format>image/svg+xml</dc:format>
        <dc:type
           rdf:resource="http://purl.org/dc/dcmitype/StillImage" />
        <dc:title></dc:title>
      </cc:Work>
    </rdf:RDF>
  </metadata>
  <g
     inkscape:label="Layer 1"
     inkscape:groupmode="layer"
     id="layer1"
     transform="translate(-349.5,-126.36218)">
    <rect
       style="opacity:0;fill:#000000;fill-opacity:1;stroke:#000000;stroke-width:1;stroke-linecap:butt;stroke-linejoin:miter;stroke-miterlimit:4;stroke-opacity:1;stroke-dasharray:none;stroke-dashoffset:0"
       id="rect3779"
       width="160"
       height="100"
       x="350"
       y="52.362183"
       ry="10" />
    <g
       id="g3967"
       transform="matrix(1.116299,0,0,1.135018,-40.90302,-17.410581)">
      <path
         transform="matrix(0.36875003,0,0,0.36875003,199.99275,97.489412)"
         sodipodi:open="true"
         sodipodi:end="9.5790476"
         sodipodi:start="3.296222"
         d="m 442.03579,116.90014 c 0.25518,-1.63708 1.78917,-2.75734 3.42625,-2.50216 1.63709,0.25518 2.75734,1.78916 2.50217,3.42624 -0.25518,1.63709 -1.78917,2.75735 -3.42625,2.50217 -1.63667,-0.25511 -2.75686,-1.78842 -2.50233,-3.42518"
         sodipodi:ry="3"
         sodipodi:rx="3"
         sodipodi:cy="117.36218"
         sodipodi:cx="445"
         id="path3791"
         style="fill:none;stroke:#000000;stroke-width:1;stroke-linecap:butt;stroke-linejoin:miter;stroke-miterlimit:4;stroke-opacity:1;stroke-dasharray:none;stroke-dashoffset:0"
         sodipodi:type="arc" />
      <path
         inkscape:connector-curvature="0"
         id="path3797"
         d="m 362.24276,127.86047 3.6875,0 -1.84375,11.8 z"
         style="fill:none;stroke:#000000;stroke-width:0.36875004px;stroke-linecap:butt;stroke-linejoin:miter;stroke-opacity:1" />
      <use
         height="1052.3622"
         width="744.09448"
         id="use3845"
         xlink:href="#path3797"
         y="0"
         x="0" />
      <use
         transform="matrix(1,0,0,-1,1.5716981e-7,281.53344)"
         height="1052.3622"
         width="744.09448"
         id="use3845-9"
         xlink:href="#path3797"
         y="0"
         x="0" />
      <use
         transform="matrix(0,-1,-1,0,504.85323,504.85323)"
         height="1052.3622"
         width="744.09448"
         id="use3845-9-6"
         xlink:href="#path3797"
         y="0"
         x="0" />
      <use
         transform="matrix(0.02818335,0.99960277,0.99960277,-0.02818335,213.11409,-219.23907)"
         height="1052.3622"
         width="744.09448"
         id="use3845-9-6-0"
         xlink:href="#path3797"
         y="0"
         x="0" />
      <use
         transform="matrix(0.8660254,0.5,-0.5,0.8660254,119.15854,-163.17227)"
         height="1052.3622"
         width="744.09448"
         id="use3845-1"
         xlink:href="#path3797"
         y="0"
         x="0" />
      <use
         transform="matrix(0.8660254,0.5,0.5,-0.8660254,-21.608183,80.64284)"
         height="1052.3622"
         width="744.09448"
         id="use3845-9-1"
         xlink:href="#path3797"
         y="0"
         x="0" />
      <use
         transform="matrix(0.5,-0.8660254,-0.8660254,-0.5,303.94765,526.47007)"
         height="1052.3622"
         width="744.09448"
         id="use3845-9-6-6"
         xlink:href="#path3797"
         y="0"
         x="0" />
      <use
         transform="matrix(-0.47539389,0.87977307,0.87977307,0.47539389,413.34029,-246.48183)"
         height="1052.3622"
         width="744.09448"
         id="use3845-9-6-0-9"
         xlink:href="#path3797"
         y="0"
         x="0" />
      <use
         height="1052.3622"
         width="744.09448"
         transform="matrix(0.87790713,0.47883094,-0.47883094,0.87790713,111.85397,-157.11834)"
         id="use3955"
         xlink:href="#use3845-1"
         y="0"
         x="0" />
      <use
         height="1052.3622"
         width="744.09448"
         transform="matrix(0.87790713,0.47883094,-0.47883094,0.87790713,111.85397,-157.11834)"
         id="use3957"
         xlink:href="#use3845-9-1"
         y="0"
         x="0" />
      <use
         height="1052.3622"
         width="744.09448"
         transform="matrix(0.87790713,0.47883094,-0.47883094,0.87790713,111.85397,-157.11834)"
         id="use3959"
         xlink:href="#use3845-9-6-6"
         y="0"
         x="0" />
      <use
         height="1052.3622"
         width="744.09448"
         transform="matrix(0.87790713,0.47883094,-0.47883094,0.87790713,111.85397,-157.11834)"
         id="use3961"
         xlink:href="#use3845-9-6-0-9"
         y="0"
         x="0" />
    </g>
    <rect
       style="fill:none;stroke:#000000;stroke-width:1;stroke-linecap:butt;stroke-linejoin:miter;stroke-miterlimit:4;stroke-opacity:1;stroke-dasharray:none;stroke-dashoffset:0"
       id="rect3965"
       width="32"
       height="32"
       x="0"
       y="0"
       transform="translate(349.5,126.36218)" />
  </g>
</svg>
